<svg xmlns="http://www.w3.org/2000/svg" xmlns:xlink="http://www.w3.org/1999/xlink" viewBox="0 0 440 95" width="440" height="95"><defs><path d="M67.82 35.32c-.03.28-.17 1.68-.44 4.21l13.51-8.42-11.74-8.41c-.26 2.52-.41 3.92-.44 4.2 0 0-2.87-.02-4.14-.02-11.7 0-17.47 3.86-15.26 13.63 1.15 5.03 2.36 7.94 4.59 15.85 2.93 10.47-5.96 21.04-19.95 21.04-17.33 0-24.28-17.81-9.58-52.15 3.02-7.04 6.94-14.78 11.87-23.19-.98-.26-2.03-.4-3.13-.4-4.67 0-9.02 2.54-11.6 6.31-.29.48-.58.97-.86 1.45C9.64 27.91 4.8 42.81 2.94 52.15c-4.56 22.78 4.24 41.98 29.24 42.08 21.78.09 44.25-21.15 33.88-42.08-5-10.08-8.4-16.83-2.44-16.83h4.2zM35.27 64.78c-4.65 0-8.02-3.77-7.53-8.42.49-4.65 4.66-8.41 9.3-8.41 4.65 0 8.02 3.76 7.53 8.41-.49 4.65-4.65 8.42-9.3 8.42zM20.65 9.42c.26-.5.55-.99.86-1.45-.29.48-.58.97-.86 1.45zm306.91 45.57c-3.96-1.67-4.94-4.13-4.63-7.04.03-.33.06-.59.09-.89.45-4.24 3.37-6.48 6.52-6.48 4.05 0 5.14 3.02 4.5 9.06 0 .06-.03.36-.09.9h10.1c.12-1.16.19-1.81.2-1.94 1.05-9.97-3.24-15.73-13.59-15.73-11.76 0-17.17 7.33-18.13 16.48-.83 7.82 2.21 11.95 8.22 14.73.76.35 6.85 3.21 7.61 3.57 2.23 1.08 4.06 2.8 3.66 6.57-.02.23-.14 1.33-.16 1.55-.49 4.63-3.16 6.89-6.81 6.89-4.08 0-5.91-3.34-5.38-8.4.03-.21.13-1.24.33-3.1h-10.1c-.1.98-.16 1.52-.17 1.63-1.12 10.59 1.71 17.59 14.55 17.59 9.61 0 17.13-5.41 18.35-17.03.88-8.34-2.52-12.88-9.41-15.87-1.13-.49-5.09-2.24-5.66-2.49zm106.27-21.42l-1.6 7.71h-4.8c-2.09 19.83-3.25 30.85-3.48 33.05-.34 3.23-.78 7.53 3.92 8.23v7.81c-2.1-.04-3.94-.27-5.54-.65-9.31-2.22-10.27-9.69-9.69-15.23.24-2.21 1.4-13.28 3.49-33.21H404l-5.08 48.39h-11.3l5.09-48.39h-3.51l.82-7.71h3.5c.33-3.08.51-4.8.54-5.14.58-5.54 3.13-13.03 12.9-15.25 1.86-.42 3.92-.65 6.3-.65 1.02 0 1.97.04 2.87.12v.02c-.98 4.67-1.53 7.27-1.64 7.79-.58-.14-1.26-.22-2.04-.22-5.54 0-6.56 3.78-6.98 7.09-.04.42-.26 2.5-.66 6.24h12.14l.98-9.34 11.41-1.18-1.1 10.52h5.59zm-63.11 40.76c-.37 3.52-.87 8.33-7.12 8.33-6.24 0-5.73-4.81-5.36-8.33.27-2.54 2.4-22.87 2.67-25.42.37-3.52.88-8.33 7.12-8.33s5.73 4.81 5.36 8.33c-.53 5.09-2.4 22.88-2.67 25.42zm-1.88-41.46c-15.08 0-18.51 9.32-19.21 15.9l-2.7 25.72c-.69 6.58.79 15.89 15.87 15.89 15.08 0 18.51-9.31 19.2-15.89l2.7-25.72c.69-6.58-.78-15.9-15.86-15.9" id="a"/><path d="M292.07 73.93c-.67 6.36-5.34 8.94-8.73 8.94-3.39 0-4.38-3.66-3.91-8.08.1-.94.1-1.01.16-1.59.55-5.18 2.87-8.09 8.14-9.38 1.6-.43 5.59-1.78 5.59-1.78l-1.25 11.89zm-20.2-23.96c-.01.07-.04.4-.1.99h10.59c.16-1.52.24-2.36.26-2.53.49-4.69 2.9-7.83 6.89-7.83 4.37 0 5.77 2.78 5.29 7.36-.03.27-.1 1.01-.14 1.35-.42 4.02-1.93 5.81-5.95 7.03-.72.22-6.44 1.98-7.15 2.2-8.59 2.67-12.68 5.79-13.77 16.17-.78 7.41 1.33 15.67 9.72 15.67 5.01 0 23.78-.71 23.78-.71.42-3.98 3.77-35.85 4.18-39.83 1.05-9.98-.92-16.97-15.26-16.97-9.1 0-17 4.35-18.34 17.1zm-55.66 39.77h-11.29c2.34-22.22 3.63-34.57 3.89-37.03.39-3.69 1.03-9.8-5.21-9.8s-7.02 7.4-7.27 9.8c-.26 2.47-1.56 14.82-3.89 37.03h-11.29c3.54-33.68 5.5-52.39 5.9-56.14 0 0 17.94-.7 23.42-.7 6.82 0 11.17 5.2 10.46 11.95 0 0-1.57 14.97-4.72 44.89zm8.18 0h11.29l5.89-56.1h-11.29l-5.89 56.1zm7.74-73.64h11.29l-.96 9.12h-11.29l.96-9.12zM163.4 74.33c-.37 3.52-.87 8.33-7.11 8.33-6.25 0-5.74-4.81-5.37-8.33.27-2.54 2.4-22.87 2.67-25.42.37-3.52.88-8.33 7.12-8.33s5.74 4.81 5.37 8.33c-.54 5.09-2.41 22.88-2.68 25.42zm-21.09-25.56l-2.7 25.72c-.69 6.58.79 15.89 15.87 15.89 15.08 0 18.51-9.31 19.2-15.89l2.7-25.72c.69-6.58-.78-15.9-15.86-15.9s-18.51 9.32-19.21 15.9zm125.15-15.13l-1.52 7.71h-4.8c-2.11 19.81-3.28 30.81-3.51 33.01-.34 3.23-.82 7.5 3.88 8.2v7.81c-2.1-.04-3.91-.27-5.5-.65-9.32-2.22-10.26-9.69-9.67-15.23.35-3.35 2.11-20.1 5.29-50.26l11.42-1.15-1.1 10.56h5.51zM115.7 48.79h-7.18l2.13-20.27h7.96c5.06 0 6.05 3.49 5.38 9.79-.59 5.64-1.77 10.48-8.29 10.48zm-2.6 31.91h-2.22c-4.91 0-5.4-3.11-5.17-5.25.07-.62.39-3.72.98-9.3l1.01-9.65h8.37c6.17 0 6.28 6.09 5.66 12.05-.9 8.55-2.04 12.15-8.63 12.15zm22.36-44.64c1.26-12.02-3.98-16.45-15.72-16.45H99.52L96.6 47.39l-2.85 27.12c-.69 6.58.79 15.94 15.86 15.94h3.21c14.37 0 19.67-9.45 20.9-21.21.94-8.87-1.15-15.15-8.86-16.55 0-.02.02-.16.02-.18 8.06-2.63 9.8-9.08 10.58-16.45" id="b"/></defs><use xlink:href="#a" fill="#fff"/><use xlink:href="#a" fill-opacity="0" stroke="#000" stroke-opacity="0"/><use xlink:href="#b" fill="#fff"/><use xlink:href="#b" fill-opacity="0" stroke="#000" stroke-opacity="0"/></svg>